<svg viewBox="0 0 137.541 17.639" xmlns="http://www.w3.org/2000/svg" fill="#ffffff" role="img" aria-labelledby="title">
  <title id="title">Major Auto</title>
  <path d="m41.332 10.407 2.99-4.519 3.04 4.519ZM46.44.254h-4.087l-11.634 17.13h6.44L39 14.592h10.733l1.882 2.792h6.527L46.442.254Z"/>
  <path d="M102.599 11.7c-.868.673-2.566.808-5.023.808h-2.349c-2.456 0-4.153-.135-5.015-.8-.419-.331-.976-.99-.976-2.882s.556-2.551.969-2.876c.868-.673 2.573-.808 5.044-.808h2.306c2.47 0 4.174.135 5.036.8.418.33.975.989.975 2.881s-.552 2.547-.967 2.877Zm4.709-9.08C105.544.807 102.654 0 97.937 0h-3.068c-4.716 0-7.607.807-9.375 2.618a8.723 8.723 0 0 0-2.089 6.2 8.715 8.715 0 0 0 2.093 6.2c1.765 1.81 4.656 2.617 9.372 2.617h3.026c4.81 0 7.626-.783 9.415-2.619a8.712 8.712 0 0 0 2.09-6.2 8.72 8.72 0 0 0-2.093-6.2Z"/>
  <path d="M74.172.254v9.348c0 1.5-.231 2.013-.578 2.329-.478.435-1.539.637-3.34.637h-8.523v4.816h9.026c3.63 0 5.809-.62 7.29-2.079 1.252-1.252 1.762-2.812 1.762-5.386V.254h-5.641Z"/>
  <path d="M0 17.384V6.987l5.273 6.479v3.918Z"/>
  <path d="m22.36.254-8.8 10.554L4.769.254H0V2.58l11.612 14.381h3.9L27.129 2.58V.254Z"/>
  <path d="M27.125 17.384V6.987l-5.273 6.479v3.918Z"/>
  <path d="M132.857 13.096c-.339-.31-.646-.578-.941-.813a5.368 5.368 0 0 0 1.519-1 6.077 6.077 0 0 0 1.719-4.644 6.078 6.078 0 0 0-1.725-4.65c-1.284-1.184-3.163-1.736-5.91-1.736h-14.53v4.818h14.151c1.15 0 1.749.114 2 .379.132.139.308.414.308 1.19a1.768 1.768 0 0 1-.3 1.207c-.253.266-.871.384-2.005.384h-14.154v9.153h5.642v-4.34h3.59a6.374 6.374 0 0 1 4.684 1.463l3.173 2.873h7.463Z"/>
</svg>
